<?xml version="1.0" encoding="UTF-8" standalone="no"?>
<svg
   xmlns:dc="http://purl.org/dc/elements/1.1/"
   xmlns:cc="http://creativecommons.org/ns#"
   xmlns:rdf="http://www.w3.org/1999/02/22-rdf-syntax-ns#"
   xmlns:svg="http://www.w3.org/2000/svg"
   xmlns="http://www.w3.org/2000/svg"
   xmlns:sodipodi="http://sodipodi.sourceforge.net/DTD/sodipodi-0.dtd"
   xmlns:inkscape="http://www.inkscape.org/namespaces/inkscape"
   version="1.1"
   width="580.20044"
   height="498.7869"
   viewBox="0 0 580.20044 498.7869"
   id="svg7"
   sodipodi:docname="phil.svg"
   inkscape:version="0.92.2 2405546, 2018-03-11">
  <metadata
     id="metadata13">
    <rdf:RDF>
      <cc:Work
         rdf:about="">
        <dc:format>image/svg+xml</dc:format>
        <dc:type
           rdf:resource="http://purl.org/dc/dcmitype/StillImage" />
      </cc:Work>
    </rdf:RDF>
  </metadata>
  <defs
     id="defs11" />
  <sodipodi:namedview
     pagecolor="#ffffff"
     bordercolor="#666666"
     borderopacity="1"
     objecttolerance="10"
     gridtolerance="10"
     guidetolerance="10"
     inkscape:pageopacity="0"
     inkscape:pageshadow="2"
     inkscape:window-width="1416"
     inkscape:window-height="874"
     id="namedview9"
     showgrid="false"
     inkscape:zoom="0.97035431"
     inkscape:cx="156.61683"
     inkscape:cy="195.20759"
     inkscape:window-x="0"
     inkscape:window-y="0"
     inkscape:window-maximized="0"
     inkscape:current-layer="svg7" />
  <g
     id="layer1"
     transform="translate(-120.57451,-178.47168)">
    <g
       style="fill:#000000;fill-opacity:1;stroke-linejoin:miter"
       id="g4">
      <path
         d="m 305.15115,241.69243 1.94265,0.72836 1.9427,0.72835 -0.80856,-1.09718 -3.07679,-0.35953 m -8.35405,1.18594 -3.55873,1.59567 6.63953,-0.45677 -3.0808,-1.1389 m 6.63277,0.89345 -1.776,0.12238 -1.776,0.12307 5.25653,1.94129 -1.70453,-2.18674 m -10.19153,0.70222 -0.94262,0.065 -0.94269,0.0649 -2.46335,1.81999 q 2.17435,-0.97494 4.34866,-1.94989 m 15.79816,-1.3249 3.2209,4.37042 3.22087,4.37042 q -1.97613,-3.90374 -3.95221,-7.80748 l -2.48956,-0.93336 m -3.9021,2.80942 5.4981,7.05374 4.8482,11.4968 2.06553,5.2242 -4.4635,-11.683 -5.34567,-11.13016 -2.60266,-0.96158 m 124.36908,144.82959 1.61499,0.31921 -10.45209,1.76384 8.8371,-2.08305 m 4.41272,0.87201 3.8463,0.76007 3.84633,0.76007 1.49547,1.0399 -9.1881,-2.56004 m 119.7437,10.63479 1.1661,0.62149 -10.8093,0.46848 9.6432,-1.08997 m -109.37136,-7.25262 7.45456,5.17984 7.12122,10.22943 6.59494,10.76697 4.38626,5.35803 -3.54236,-3.51807 -6.49096,-10.71606 -6.99927,-10.40417 -8.52439,-6.89597 m 98.97466,8.42694 -11.88295,3.8627 -11.04445,5.50568 q -10.7795,6.50033 -20.907,13.15295 l -1.93063,1.00867 q 9.90878,-6.52814 20.98669,-13.3003 l 11.31274,-6.1239 11.8082,-3.91864 1.6574,-0.18716 m -68.99947,27.49356 4.206,0.54449 4.20597,0.54518 q -3.7514,-0.0934 -7.50273,-0.18678 l -0.90924,-0.90289 m 23.21839,-3.9552 -4.94425,2.58307 -4.94424,2.58307 -1.25888,-0.0312 11.14737,-5.13492 M 296.0598,238.28389 l -13.47856,6.11916 q -78.34567,55.56808 -92.90758,142.76651 -12.8259,67.26559 -1.45518,163.98194 l 1.99838,12.5452 0.47592,0.3359 q -1.4104,-12.9111 -1.04735,-17.4017 9.00002,35.5465 17.63649,48.76345 5.65476,9.80305 15.20302,14.3327 l 6.96747,-5.50725 -7.37483,4.32195 q -9.58588,-7.06045 -14.10886,-18.5622 -6.03972,-12.28825 -14.96257,-71.00915 -1.98457,-20.73572 -0.9597,-59.20062 0.0375,26.59808 1.77638,46.15422 -3.02832,-69.27813 5.14099,-110.69573 l 4.27744,-19.9078 q -5.74167,43.694 -6.52566,62.40873 -0.67037,11.4897 1.05077,19.38985 3.08277,-44.77512 7.94507,-79.66695 3.23936,-23.93217 14.1332,-45.68492 7.13844,-16.99423 35.08026,-46.78204 16.86532,-17.63556 36.57473,-32.41982 l 7.76502,-2.74107 3.51211,2.33691 q 2.85068,4.18091 13.56034,33.79642 8.33185,23.57086 12.9677,46.65137 l 1.53797,24.92239 3.55536,5.54686 4.20233,16.95738 -1.39212,-28.03604 q 6.21176,55.77533 6.67212,53.49676 1.98276,12.69984 8.98889,23.09592 L 364.81,427.56998 q 33.91845,-26.84464 54.29358,-34.33128 -11.07528,4.3316 -21.81556,11.33613 -26.47088,17.44855 -23.76025,18.8161 l 4.47633,-1.30603 q 17.96605,-11.26892 36.54455,-18.98093 9.68627,-3.90107 16.88775,-3.19671 8.46777,0.65474 14.57202,7.45309 l 13.08673,20.2287 13.55732,12.31207 17.49646,0.19738 44.16137,-25.55626 q 12.4568,-5.20384 18.76624,-4.32837 l 7.58636,5.02543 q 30.76776,31.48006 40.988,44.9109 l -31.6045,-39.53655 17.4367,16.12595 q 1.95574,-1.18833 -4.9638,-9.6201 -21.46254,-24.08154 -24.30604,-22.39764 l 5.98034,3.18744 43.5911,45.6195 10.5264,6.79878 12.1772,3.22164 q -6.9892,-2.86592 -15.80226,-7.73745 l -8.60174,-7.87769 -34.235,-36.67346 -9.99884,-8.64209 -13.2406,-3.28177 q -13.10446,1.99002 -24.95086,7.86667 l -32.1645,19.98639 -10.7741,2.38818 -8.7729,-3.54385 q -6.31737,-11.08612 -13.27913,-21.68802 l -9.70569,-10.62537 -11.39646,-5.28386 -13.81057,-0.13154 q -25.03757,8.86829 -44.91282,24.2923 26.61261,-18.49799 33.00602,-20.4679 -4.37577,-0.82466 -13.50678,4.03641 -1.17959,-0.3674 -39.6528,27.7648 l -3.56052,-1.60663 q -3.91488,-10.23889 -6.22955,-22.2594 -2.7045,-18.61261 -7.0229,-61.73074 -1.48238,-13.65784 -5.3627,-25.18167 -3.42055,-11.86896 -7.68175,-23.66703 l -1.43975,-2.38082 q 2.83526,11.83255 3.63595,17.69592 -3.50422,-12.27225 -7.76737,-24.01306 l 2.836,13.33239 -2.19074,-3.87793 -18.66454,-41.79652 -8.3625,-2.6212 -9.90936,4.72127 q -5.54782,3.40997 -28.24276,23.53865 10.79739,-14.65467 30.1629,-27.66027 l -3.44838,1.54618 q -34.79854,26.88869 -46.13327,41.33522 12.9016,-16.0278 45.36587,-42.74187 l 10.36406,-6.05282 10.11319,1.18179 -9.09135,-3.40854"
         id="path2"
         inkscape:connector-curvature="0" />
    </g>
  </g>
</svg>
